<?xml version="1.0" encoding="UTF-8" standalone="no"?>
<!-- Created with Inkscape (http://www.inkscape.org/) -->

<svg
   width="24.823582mm"
   height="12.000121mm"
   viewBox="0 0 24.823581 12.000122"
   version="1.1"
   id="svg1022"
   inkscape:version="1.1.2 (1:1.1+202202050950+0a00cf5339)"
   sodipodi:docname="logo.svg"
   xmlns:inkscape="http://www.inkscape.org/namespaces/inkscape"
   xmlns:sodipodi="http://sodipodi.sourceforge.net/DTD/sodipodi-0.dtd"
   xmlns="http://www.w3.org/2000/svg"
   xmlns:svg="http://www.w3.org/2000/svg">
  <sodipodi:namedview
     id="namedview1024"
     pagecolor="#505050"
     bordercolor="#ffffff"
     borderopacity="1"
     inkscape:pageshadow="0"
     inkscape:pageopacity="0"
     inkscape:pagecheckerboard="1"
     inkscape:document-units="mm"
     showgrid="false"
     inkscape:zoom="1"
     inkscape:cx="66.5"
     inkscape:cy="32"
     inkscape:window-width="1366"
     inkscape:window-height="703"
     inkscape:window-x="0"
     inkscape:window-y="0"
     inkscape:window-maximized="1"
     inkscape:current-layer="layer1"
     showguides="true"
     inkscape:guide-bbox="true"
     inkscape:snap-global="false" />
  <defs
     id="defs1019" />
  <g
     inkscape:label="Capa 1"
     inkscape:groupmode="layer"
     id="layer1"
     transform="translate(-27.075039,-118.71049)">
    <path
       style="fill:#ffffff;fill-opacity:1;stroke-width:0.0223238"
       d="m 27.464387,126.42617 c -0.03697,-0.0829 -0.04071,-0.1401 -0.02623,-0.4022 0.01644,-0.29748 0.05106,-0.38329 0.425884,-1.0553 0.421496,-0.75568 0.917986,-1.48998 1.601789,-2.36893 0.126025,-0.16201 0.2288,-0.30607 0.228368,-0.32015 -0.0023,-0.0742 -1.036552,0.16379 -1.562048,0.35945 -0.251088,0.0934 -0.457035,0.189 -0.475188,0.22046 -0.02415,0.0418 0.08323,0.0553 0.255821,0.0323 0.264489,-0.0354 0.550236,-0.0618 0.566809,-0.0521 0.0075,0.005 -0.06244,0.0308 -0.155612,0.0584 -0.232836,0.0693 -0.351916,0.11144 -0.644573,0.2279 -0.313184,0.12464 -0.417572,0.14489 -0.500966,0.0967 -0.113336,-0.0654 -0.132115,-0.2411 -0.06316,-0.59066 0.02488,-0.12614 0.05545,-0.20272 0.137995,-0.34568 0.09634,-0.16688 0.11872,-0.19239 0.244585,-0.27944 0.51759,-0.35781 1.765401,-0.73219 2.583656,-0.7752 0.887491,-0.0466 1.609748,0.21688 1.999429,0.72947 0.248659,0.32709 0.377897,0.77603 0.362615,1.25961 -0.02725,0.86248 -0.597631,1.75543 -1.533741,2.40111 -0.905901,0.62484 -2.03048,0.97578 -3.051766,0.95234 -0.246866,-0.006 -0.346966,-0.0434 -0.393672,-0.14804 z m 0.833192,-0.61329 c 1.005798,0.0703 2.26552,-0.38604 3.043109,-1.1023 0.320928,-0.29561 0.557411,-0.65873 0.628319,-0.96478 0.09414,-0.40631 0.02748,-0.77295 -0.185825,-1.02212 -0.255851,-0.29885 -0.630285,-0.44735 -1.224036,-0.48538 -0.264953,-0.0169 -0.668668,-0.0135 -0.704064,0.005 -0.01215,0.006 -0.01705,0.064 -0.0111,0.12764 0.0135,0.14175 -0.02346,0.26462 -0.12532,0.41748 -0.08953,0.13439 -0.527141,0.77322 -0.705351,1.02973 -0.255496,0.36775 -0.952027,1.54848 -0.99903,1.69355 -0.0138,0.0426 -0.0181,0.1083 -0.0094,0.14595 0.01335,0.0582 0.02976,0.0742 0.110861,0.10874 0.0523,0.0224 0.13414,0.0434 0.181836,0.0466 z m 1.523067,1.38168 c 0.0028,-0.0847 0.01647,-0.15627 0.03021,-0.15901 0.0138,-0.003 0.504885,0.007 1.091422,0.0231 0.586536,0.0155 1.575252,0.0409 2.19714,0.0564 0.621891,0.0156 1.525022,0.0386 2.006966,0.051 0.481937,0.012 1.034588,0.0267 1.228109,0.0316 0.282891,0.008 0.352374,0.0164 0.354441,0.0465 0.0078,0.1134 -0.0114,0.28313 -0.03244,0.28773 -0.0135,0.003 -1.281679,-0.0271 -2.81833,-0.0667 -1.536651,-0.0396 -3.073853,-0.0789 -3.416,-0.0872 -0.342145,-0.009 -0.62763,-0.0185 -0.634413,-0.0223 -0.0068,-0.005 -0.01005,-0.0765 -0.007,-0.16115 z m 3.008386,-0.79788 c -0.185868,-0.24283 -0.28735,-0.54669 -0.288866,-0.86496 -0.0018,-0.38399 0.08926,-0.53903 0.55957,-0.95264 0.229158,-0.20152 0.737661,-0.54798 0.993285,-0.67673 0.258729,-0.13035 0.525101,-0.22886 0.785245,-0.29047 0.240243,-0.0568 0.361034,-0.0528 0.43829,0.0153 0.07306,0.0642 0.154839,0.23083 0.1557,0.31723 7.08e-4,0.0696 -0.0032,0.076 -0.06283,0.10709 -0.03484,0.0181 -0.09087,0.042 -0.12448,0.0528 -0.06108,0.0196 -0.06109,0.0198 -0.0117,0.14789 0.13564,0.352 0.133495,0.365 -0.110261,0.67202 -0.09514,0.11985 -0.218289,0.29618 -0.273655,0.3918 -0.104846,0.18144 -0.12436,0.28553 -0.08181,0.4388 0.04288,0.15445 0.268202,0.21035 0.479839,0.11909 0.153152,-0.066 0.528256,-0.31373 0.560953,-0.37036 0.01365,-0.0236 0.03241,-0.094 0.04177,-0.15661 0.04195,-0.28109 0.224642,-0.8031 0.437421,-1.24985 0.141564,-0.29725 0.497735,-0.88288 0.724468,-1.1912 0.398569,-0.54207 0.79856,-0.91392 1.074397,-0.99883 0.157842,-0.0486 0.200284,0.0332 0.183743,0.35379 -0.03525,0.68324 -0.63845,1.71251 -1.576203,2.68955 l -0.246745,0.25709 -0.02244,0.1727 c -0.04252,0.32732 0.03369,0.57275 0.20932,0.67415 0.21577,0.12465 0.344497,0.0668 0.881356,-0.39574 0.152753,-0.13155 0.290137,-0.24412 0.305302,-0.25006 0.08929,-0.0349 0.739851,-0.77978 1.340041,-1.53432 0.580228,-0.72945 0.704883,-0.83306 1.034034,-0.85929 0.279415,-0.0222 0.304587,0.0876 0.08563,0.37391 -0.06466,0.0844 -0.201869,0.239 -0.304957,0.34333 -0.103061,0.1044 -0.269785,0.30283 -0.370442,0.44108 -0.197016,0.2706 -0.55654,0.87346 -0.530053,0.88876 0.0088,0.005 0.1294,-0.079 0.267791,-0.18694 0.366778,-0.2861 0.744233,-0.55624 0.886285,-0.63428 0.218885,-0.1203 0.515367,-0.17401 0.621609,-0.11265 0.0483,0.0279 0.06187,0.10035 0.04614,0.24656 -0.02217,0.20616 -0.06813,0.33494 -0.20323,0.5695 -0.128365,0.22304 -0.313554,0.45633 -0.529049,0.66682 -0.09573,0.0934 -0.484239,0.44839 -0.542174,0.49525 -0.08929,0.0721 0.269206,0.12329 0.482444,0.0688 0.222557,-0.0568 0.59858,-0.2668 0.88135,-0.4919 l 0.09778,-0.0778 0.04797,-0.17311 c 0.07095,-0.25609 0.213325,-0.5229 0.476238,-0.89253 1.085603,-1.5261 1.979767,-2.61021 2.370386,-2.8739 0.14059,-0.0949 0.19979,-0.0987 0.367966,-0.0236 l 0.107441,0.048 -0.0111,0.0865 c -0.0147,0.11475 -0.102176,0.26179 -0.401755,0.6758 -0.776593,1.07309 -1.578282,2.05678 -2.256576,2.76888 l -0.174262,0.18294 -0.0048,0.2229 c -0.0025,0.12255 0.0047,0.22483 0.01607,0.2272 0.0114,0.003 0.143754,-0.1227 0.293886,-0.27772 0.729528,-0.75357 1.368881,-1.27634 1.667084,-1.3631 0.1207,-0.0351 0.136014,-0.0339 0.196519,0.0155 0.09031,0.0737 0.18455,0.22607 0.195125,0.31547 l 0.0088,0.0744 -0.199158,0.22803 c -0.585616,0.67043 -0.792505,1.04853 -0.670477,1.22524 0.09978,0.14444 0.339063,0.0606 0.848491,-0.29723 l 0.167005,-0.11729 0.06579,-0.16998 c 0.2266,-0.58547 1.025169,-1.264 1.661883,-1.41206 0.233471,-0.0543 0.406811,-0.0441 0.538274,0.0314 0.08502,0.049 0.09784,0.0666 0.122755,0.16981 0.0562,0.23285 -0.08641,0.55558 -0.346254,0.78355 -0.262496,0.2303 -0.743858,0.5011 -1.196771,0.6733 l -0.199872,0.076 -0.0039,0.10935 c -0.0051,0.1419 0.02431,0.25024 0.09489,0.34971 0.07587,0.10695 0.14785,0.14535 0.296563,0.15852 0.290344,0.0255 0.699714,-0.15835 1.145661,-0.51468 0.09786,-0.0781 0.195549,-0.15328 0.217094,-0.16687 0.04198,-0.0266 0.261419,-0.28134 0.300695,-0.34927 0.01977,-0.0342 0.01035,-0.0509 -0.05739,-0.1008 -0.09729,-0.0718 -0.142194,-0.15346 -0.137694,-0.25042 0.01518,-0.32739 0.542974,-0.9807 0.825063,-1.02131 0.08706,-0.012 0.09927,-0.007 0.115885,0.0552 0.0089,0.0328 -0.0081,0.0841 -0.05335,0.16255 -0.03639,0.063 -0.0619,0.11714 -0.05668,0.12014 0.0053,0.003 0.149395,-0.0105 0.320364,-0.0303 0.811283,-0.0933 0.878275,-0.0829 0.939189,0.14534 0.03939,0.14759 0.03859,0.29345 -0.0019,0.36371 -0.01524,0.0264 -0.13036,0.1547 -0.255814,0.28511 -0.478682,0.49757 -0.701156,0.98217 -0.503338,1.09638 0.152146,0.0879 0.378165,0.0168 0.758333,-0.23855 0.12784,-0.0858 0.240289,-0.15462 0.249878,-0.15283 0.0097,10e-4 0.0138,0.0546 0.0093,0.11744 l -0.0081,0.1143 -0.258793,0.2411 c -0.471007,0.43885 -0.74484,0.63202 -0.955511,0.67405 -0.120446,0.024 -0.188798,0.007 -0.286009,-0.0669 -0.150934,-0.1164 -0.217998,-0.42048 -0.154121,-0.69893 0.04099,-0.17869 0.341483,-0.69507 0.552793,-0.94955 0.08485,-0.1023 0.156783,-0.19827 0.159854,-0.21328 0.0031,-0.0157 -0.08047,-0.0135 -0.197931,0.006 -0.111941,0.0185 -0.287076,0.0462 -0.389196,0.0618 l -0.185687,0.0283 -0.06973,0.1206 c -0.132355,0.22909 -0.347662,0.46746 -0.707397,0.78357 -0.05838,0.0515 -0.176649,0.16288 -0.262743,0.24787 -0.317318,0.31323 -0.599386,0.52637 -0.82355,0.62232 -0.579734,0.24812 -1.072009,0.0804 -1.227664,-0.41847 -0.0418,-0.13394 -0.07875,-0.42405 -0.06414,-0.50362 0.0088,-0.0479 -0.02566,-0.0754 -0.0474,-0.0378 -0.0083,0.015 -0.159951,0.15579 -0.337132,0.31447 -0.540808,0.48433 -0.859044,0.66789 -1.07092,0.61772 -0.118585,-0.0282 -0.169063,-0.0783 -0.201987,-0.20131 -0.07711,-0.28778 0.0868,-0.73322 0.49521,-1.34575 0.11578,-0.17359 0.224762,-0.32904 0.242293,-0.3454 0.07204,-0.0675 -0.03525,-0.0377 -0.163813,0.0454 -0.26578,0.17185 -0.60195,0.51555 -1.24696,1.27493 -0.307859,0.36244 -0.382443,0.42296 -0.485104,0.3937 -0.141025,-0.0402 -0.235328,-0.29853 -0.231518,-0.63415 0.0011,-0.0891 -0.0085,-0.15834 -0.02113,-0.15398 -0.0126,0.004 -0.05194,0.0318 -0.08737,0.061 -0.03541,0.0293 -0.09079,0.0726 -0.12304,0.0964 -0.03222,0.0238 -0.156546,0.1203 -0.276204,0.21432 -0.302642,0.23766 -0.623088,0.42253 -0.828232,0.47783 -0.211539,0.057 -0.364936,0.0356 -0.687888,-0.0966 -0.199198,-0.0815 -0.250825,-0.0941 -0.334847,-0.0815 -0.09307,0.0135 -0.299165,-0.0342 -0.352418,-0.082 -0.04039,-0.0365 -0.144924,0.15396 -0.372971,0.6793 -0.310367,0.71494 -0.536018,1.08536 -0.694158,1.13943 -0.168979,0.0577 -0.225884,-0.26131 -0.117596,-0.65948 0.07545,-0.2774 0.320728,-0.71654 0.651056,-1.16562 0.221713,-0.3014 0.35123,-0.50557 0.775139,-1.22196 0.453319,-0.76607 0.592403,-1.02169 0.549818,-1.01027 -0.0072,10e-4 -0.191285,0.20099 -0.40899,0.44232 -0.217698,0.24135 -0.523459,0.57032 -0.67946,0.73107 -0.156002,0.16073 -0.368533,0.3897 -0.472301,0.50879 -0.60104,0.68986 -1.066717,0.94224 -1.394098,0.75557 -0.171076,-0.0978 -0.328606,-0.45183 -0.349558,-0.78648 -0.0048,-0.0774 -0.01776,-0.14024 -0.02869,-0.13994 -0.01095,3.6e-4 -0.04234,0.0268 -0.06975,0.0588 -0.11551,0.1347 -0.601984,0.55204 -0.792908,0.6803 -0.31204,0.20965 -0.509245,0.26021 -0.66473,0.17044 -0.08245,-0.0477 -0.13942,-0.23426 -0.12331,-0.40401 0.01455,-0.15295 0.138879,-0.6094 0.190827,-0.70041 0.01921,-0.0335 0.03405,-0.0785 0.03321,-0.0998 -0.002,-0.0492 0.0123,-0.0615 -0.308693,0.26588 -0.541634,0.55234 -0.756904,0.73386 -0.940613,0.79322 -0.135145,0.0436 -0.208054,0.0105 -0.334088,-0.1548 z m 0.423886,-0.45083 c 0.09714,-0.0276 0.223599,-0.10289 0.481048,-0.28648 0.235401,-0.16788 0.744996,-0.72854 1.132527,-1.24602 0.04074,-0.0544 0.08722,-0.11175 0.103241,-0.1272 0.0697,-0.0678 -0.03139,-0.0432 -0.298388,0.0726 -0.68638,0.29772 -1.183234,0.5851 -1.406933,0.81378 -0.203836,0.20837 -0.292444,0.51004 -0.20337,0.69248 0.0522,0.10694 0.07156,0.11504 0.191891,0.081 z m 5.649658,-0.0168 c 0.148419,-0.015 0.309877,0.0135 0.413163,0.0736 0.0769,0.0444 0.08748,0.0375 0.322785,-0.21069 0.263197,-0.27763 0.492101,-0.58645 0.540097,-0.72872 0.05661,-0.16782 0.04911,-0.23536 -0.03132,-0.28178 -0.212502,-0.1227 -0.841611,0.35972 -1.34721,1.03304 -0.09324,0.12419 -0.08508,0.13334 0.102476,0.1146 z m -2.148084,-1.37292 c 0.295081,-0.29544 0.548954,-0.63471 0.795968,-1.0637 0.287486,-0.49969 0.37071,-0.74502 0.276937,-0.81861 -0.04705,-0.0369 -0.131425,0.0182 -0.291988,0.19039 -0.16455,0.17659 -0.561539,0.86374 -0.6853,1.18646 -0.112135,0.2921 -0.19049,0.54734 -0.171392,0.55837 0.0081,0.005 0.04221,-0.019 0.07588,-0.0528 z m 8.313472,0.9319 c 0.227415,-0.10289 0.512683,-0.29774 0.666943,-0.45558 0.167176,-0.17103 0.292637,-0.38551 0.278294,-0.47584 -0.0092,-0.0579 -0.01812,-0.0667 -0.07357,-0.0721 -0.147939,-0.015 -0.554386,0.25062 -0.78897,0.51419 -0.16346,0.18365 -0.233503,0.3159 -0.27582,0.5208 -0.0105,0.0511 0.02225,0.0457 0.193109,-0.0315 z m -6.050394,1.7707 c -3.52e-4,-0.0792 0.0035,-0.151 0.0084,-0.15967 0.0051,-0.009 0.314178,-0.0168 0.68704,-0.018 0.372857,-7.2e-4 1.561047,-0.004 2.640418,-0.007 1.079376,-0.003 2.896117,-0.009 4.0372,-0.012 1.141091,-0.003 2.087132,-0.005 2.102314,-0.002 0.03468,0.006 0.03033,0.31306 -0.0045,0.32088 -0.0141,0.003 -0.345143,0.006 -0.735699,0.008 -0.390548,10e-4 -1.27939,0.003 -1.975195,0.006 -0.695808,10e-4 -2.485955,0.007 -3.978104,0.012 -1.492158,0.004 -2.728344,0.006 -2.747089,0.003 -0.02296,-0.005 -0.03433,-0.0529 -0.03478,-0.14984 z m 8.2277,3.42513 c 0.422311,-0.23217 1.075234,-0.60644 1.114501,-0.63888 0.02782,-0.023 0.13117,-0.0939 0.229652,-0.1575 0.09849,-0.0636 0.27841,-0.20336 0.399828,-0.31048 0.12142,-0.1071 0.284038,-0.23942 0.361354,-0.29402 0.259556,-0.1833 0.691022,-0.58855 1.075108,-1.00981 0.196068,-0.21505 0.31965,-0.41485 0.552885,-0.89386 0.219767,-0.45138 0.222757,-0.46263 0.281143,-1.06692 0.01994,-0.2064 -0.012,-0.41847 -0.134215,-0.89072 -0.140934,-0.54467 -0.188814,-0.65903 -0.480229,-1.14687 -0.279535,-0.46798 -0.49667,-0.74694 -0.826413,-1.06176 -0.09909,-0.0945 -0.214718,-0.21575 -0.256988,-0.26924 -0.114221,-0.1446 -0.549306,-0.52267 -0.642775,-0.5586 -0.04644,-0.0178 -0.106766,-0.0627 -0.148569,-0.10934 -0.1613,-0.18208 -1.705588,-1.06583 -2.383227,-1.36381 -0.195007,-0.0858 -1.198406,-0.46533 -1.72428,-0.65225 -0.152937,-0.0543 -0.384587,-0.13679 -0.514813,-0.18325 -0.130211,-0.0464 -0.455839,-0.13544 -0.723595,-0.19773 -0.267757,-0.0624 -0.577276,-0.13755 -0.687822,-0.16705 -0.229835,-0.0614 -1.580688,-0.31963 -1.834007,-0.35057 -0.09271,-0.012 -0.253861,-0.0284 -0.358123,-0.0378 -0.104276,-0.009 -0.251793,-0.0352 -0.327835,-0.0573 -0.07603,-0.022 -0.283812,-0.049 -0.461704,-0.0603 -0.177893,-0.0105 -0.52945,-0.0351 -0.78123,-0.0533 -0.251783,-0.0181 -0.621825,-0.0402 -0.822312,-0.049 -0.200495,-0.009 -0.600901,-0.0276 -0.889804,-0.0418 -0.288896,-0.0135 -0.582696,-0.0177 -0.652889,-0.008 -0.07018,0.0105 -0.522043,0.0383 -1.004113,0.063 -0.48207,0.0246 -0.926893,0.0516 -0.988495,0.0601 -0.0616,0.009 -0.147385,0.0164 -0.190619,0.0175 -0.111086,0.003 -0.345108,0.0321 -0.610664,0.0754 -0.12526,0.0206 -0.31338,0.045 -0.418076,0.0545 -0.377389,0.0341 -0.558437,0.0598 -0.846459,0.1209 -0.0835,0.0177 -0.176037,0.0369 -0.205645,0.0427 -0.02961,0.006 -0.158818,0.0367 -0.287141,0.0688 -0.241599,0.0603 -0.284085,0.0605 -0.255003,7.1e-4 0.07035,-0.1446 0.08833,-0.16092 0.192446,-0.17656 0.05761,-0.009 0.380704,-0.0861 0.718005,-0.17242 0.611822,-0.15644 1.026607,-0.22606 2.144176,-0.35982 0.465978,-0.0558 0.652004,-0.0708 1.149382,-0.0933 0.167396,-0.007 0.430677,-0.0216 0.585069,-0.031 0.154395,-0.009 0.360259,-0.015 0.45748,-0.0105 0.273972,0.0105 0.420669,0.0105 0.564674,0.005 0.169653,-0.008 0.387053,-0.0105 0.660956,-0.006 0.654871,0.009 2.443271,0.17395 2.703539,0.24948 0.03601,0.0105 0.12232,0.0237 0.191757,0.0294 0.06945,0.006 0.137785,0.0169 0.151886,0.0252 0.0141,0.007 0.129265,0.0224 0.255914,0.0318 0.126656,0.009 0.242813,0.0241 0.258145,0.033 0.02796,0.0162 0.08536,0.0268 0.757893,0.1422 0.529955,0.0909 1.099255,0.22026 1.326494,0.30153 0.109121,0.039 0.349056,0.10724 0.533154,0.15143 0.346985,0.0834 1.15368,0.36144 1.703034,0.5869 0.171937,0.0705 0.464072,0.18739 0.649211,0.25961 0.617624,0.24094 1.539425,0.74826 2.210462,1.21657 0.477246,0.33307 1.110563,0.84504 1.300525,1.05134 0.07842,0.0852 0.216471,0.22302 0.306766,0.30629 0.17849,0.16461 0.536945,0.65335 0.817372,1.11448 0.13567,0.2231 0.347263,0.6964 0.327006,0.73149 -0.0044,0.007 0.02173,0.12854 0.05799,0.2688 0.04642,0.17962 0.06733,0.34355 0.07065,0.55422 0.0111,0.70483 -0.0235,1.00497 -0.154707,1.34132 -0.04065,0.1041 -0.09835,0.25642 -0.12829,0.33837 -0.121435,0.33255 -0.53336,0.91299 -0.901823,1.27087 -0.07782,0.0756 -0.190584,0.19027 -0.250568,0.25489 -0.05998,0.0647 -0.176577,0.16549 -0.259088,0.22418 -0.08251,0.0587 -0.232175,0.17528 -0.332584,0.25909 -0.24427,0.20387 -0.628764,0.44384 -0.868916,0.54232 -0.107681,0.0441 -0.291437,0.11984 -0.408337,0.16833 -0.116905,0.0485 -0.289891,0.1167 -0.38443,0.15183 -0.09454,0.0351 -0.348073,0.13604 -0.563408,0.22437 -0.393324,0.16138 -0.505384,0.20158 -0.399292,0.14325 z m 1.649711,-8.34448 c -0.0102,-0.0135 -0.03198,-0.0255 -0.04833,-0.0279 -0.0164,-0.002 -0.008,0.009 0.01857,0.0237 0.02658,0.0155 0.03999,0.0173 0.02979,0.005 z"
       id="path958" />
  </g>
</svg>
